<?xml version="1.0" encoding="UTF-8" standalone="no"?>
<svg width="40px" height="32px" viewBox="0 0 40 32" version="1.1" xmlns="http://www.w3.org/2000/svg" xmlns:xlink="http://www.w3.org/1999/xlink">
    <!-- Generator: Sketch 3.7.2 (28276) - http://www.bohemiancoding.com/sketch -->
    <title>icon_order</title>
    <desc>Created with Sketch.</desc>
    <defs></defs>
    <g id="Main-Page" stroke="none" stroke-width="1" fill="none" fill-rule="evenodd">
        <g id="1248-px" transform="translate(-204.000000, -593.000000)">
            <g id="Popular-Advices" transform="translate(158.000000, 555.000000)">
                <g id="Order" transform="translate(47.000000, 33.000000)">
                    <g id="icon_order" transform="translate(0.000000, 5.000000)">
                        <rect id="Combined-Shape" stroke="#B9C8CE" stroke-width="2" fill="#FFFFFF" x="0" y="11" width="32" height="20" rx="2.22222222"></rect>
                        <rect id="Combined-Shape" stroke="#B9C8CE" stroke-width="2" fill="#FFFFFF" x="3" y="6" width="32" height="20" rx="2.22222222"></rect>
                        <g id="Group-21" transform="translate(5.407407, 0.000000)">
                            <g id="Group-14" transform="translate(16.500000, 11.202703) scale(-1, 1) rotate(-180.000000) translate(-16.500000, -11.202703) translate(0.000000, 0.702703)">
                                <path d="M0.592592593,2.91946858 C0.592592593,1.69518259 1.585379,0.702702703 2.81736427,0.702702703 L30.3678209,0.702702703 C31.5965284,0.702702703 32.5925926,1.69450581 32.5925926,2.91946858 L32.5925926,18.4859368 C32.5925926,19.7102228 31.5998062,20.7027027 30.3678209,20.7027027 L2.81736427,20.7027027 C1.5886568,20.7027027 0.592592593,19.7108996 0.592592593,18.4859368 L0.592592593,2.91946858 Z" id="Combined-Shape" stroke="#B9C8CE" stroke-width="2" fill="#FFFFFF"></path>
                                <path d="M25.5925925,0.702702701 L25.5925925,20.7027035" id="Line" stroke="#B9C8CE" stroke-width="2" stroke-linecap="square"></path>
                                <path d="M10,10.0694981 L12.9492917,10.0694981 C12.2991118,8.45709155 11.1111111,5.37837838 11.1111111,5.37837838 L12.5925926,5.37837838 L15.5555556,10.0694981 L19.2223669,10.0694981 C19.6518418,10.0694981 20,10.4165352 20,10.8513514 C20,11.283157 19.6580788,11.6332046 19.2223669,11.6332046 L10,11.6332046 L8.14814815,13.1969112 L7.40740741,12.8059845 L8.21140697,11.1620188 C8.17070087,11.0669986 8.14814815,10.962018 8.14814815,10.8513514 C8.14814815,10.6926873 8.19431248,10.5450617 8.27433134,10.4217846 L7.40740741,8.89671815 L8.14814815,8.5057915 L10,10.0694981 Z M11.1111111,16.3243243 L12.962963,11.6332045 L15.5555556,11.6332045 L12.5925926,16.3243243 L11.1111111,16.3243243 Z" id="Rectangle-169" fill="#B9C8CE"></path>
                            </g>
                        </g>
                    </g>
                </g>
            </g>
        </g>
    </g>
</svg>