<svg id="Слой_1" data-name="Слой 1" xmlns="http://www.w3.org/2000/svg" xmlns:xlink="http://www.w3.org/1999/xlink" viewBox="0 0 951.01 284.17"><defs><linearGradient id="Безымянный_градиент_3" x1="567.67" y1="368" x2="567.67" y2="465.33" gradientUnits="userSpaceOnUse"><stop offset="0" stop-color="#c6c6c6"/><stop offset=".04" stop-color="#dadada"/><stop offset=".1" stop-color="#ebebeb"/><stop offset=".16" stop-color="#f6f6f6"/><stop offset=".26" stop-color="#fdfdfd"/><stop offset=".52" stop-color="#fff"/><stop offset=".58" stop-color="#fafafa"/><stop offset=".65" stop-color="#ededed"/><stop offset=".72" stop-color="#d7d7d7"/><stop offset=".8" stop-color="#b8b8b8"/><stop offset=".87" stop-color="#909090"/><stop offset=".95" stop-color="#60605f"/><stop offset="1" stop-color="#3c3c3b"/></linearGradient><linearGradient id="Безымянный_градиент_56" x1="844.57" y1="252.87" x2="1024.63" y2="318.41" gradientUnits="userSpaceOnUse"><stop offset=".13" stop-color="#007cbb"/><stop offset=".28" stop-color="#0280bf"/><stop offset=".44" stop-color="#088dcb"/><stop offset=".52" stop-color="#0c96d4"/><stop offset=".63" stop-color="#0c94d1"/><stop offset=".71" stop-color="#0b8cc7"/><stop offset=".79" stop-color="#0980b6"/><stop offset=".86" stop-color="#076f9e"/><stop offset=".93" stop-color="#04597f"/><stop offset="1" stop-color="#013e59"/><stop offset="1" stop-color="#013d57"/></linearGradient><linearGradient id="Безымянный_градиент_61" x1="955.41" y1="348.29" x2="1017.51" y2="348.29" gradientUnits="userSpaceOnUse"><stop offset=".34" stop-color="#93c1e7"/><stop offset=".47" stop-color="#90bee4"/><stop offset=".58" stop-color="#85b5da"/><stop offset=".68" stop-color="#73a6ca"/><stop offset=".78" stop-color="#5b90b3"/><stop offset=".88" stop-color="#3b7495"/><stop offset=".97" stop-color="#145371"/><stop offset="1" stop-color="#054663"/></linearGradient><linearGradient id="Безымянный_градиент_70" x1="911.1" y1="382.09" x2="884.21" y2="335.5" gradientUnits="userSpaceOnUse"><stop offset=".34" stop-color="#0c96d4"/><stop offset=".46" stop-color="#0d93cf"/><stop offset=".61" stop-color="#0e89c1"/><stop offset=".76" stop-color="#1178a9"/><stop offset=".79" stop-color="#1275a4"/></linearGradient><linearGradient id="Безымянный_градиент_15" x1="497.35" y1="447.61" x2="497.35" y2="465.2" gradientUnits="userSpaceOnUse"><stop offset=".34" stop-color="#0c96d4"/><stop offset=".46" stop-color="#0a84bb"/><stop offset=".7" stop-color="#07638b"/><stop offset=".89" stop-color="#064e6e"/><stop offset="1" stop-color="#054663"/></linearGradient><linearGradient id="Безымянный_градиент_13" x1="555.12" y1="426.05" x2="555.13" y2="466.97" gradientUnits="userSpaceOnUse"><stop offset=".09" stop-color="#c6c6c6"/><stop offset=".1" stop-color="#c8c8c8"/><stop offset=".19" stop-color="#e0e0e0"/><stop offset=".29" stop-color="#f1f1f1"/><stop offset=".4" stop-color="#fcfcfc"/><stop offset=".52" stop-color="#fff"/><stop offset=".6" stop-color="#d2d2d2"/><stop offset=".7" stop-color="#a8a8a8"/><stop offset=".78" stop-color="#898989"/><stop offset=".85" stop-color="#777676"/><stop offset=".9" stop-color="#706f6f"/></linearGradient><linearGradient id="Безымянный_градиент_6" x1="724.88" y1="411.12" x2="724.88" y2="404.12" gradientUnits="userSpaceOnUse"><stop offset="0" stop-color="#e4e4e4"/><stop offset=".12" stop-color="#ccc"/><stop offset=".37" stop-color="#8e8e8d"/><stop offset=".67" stop-color="#3c3c3b"/></linearGradient><linearGradient id="Безымянный_градиент_6-2" x1="737.61" y1="411.12" x2="737.61" y2="404.12" xlink:href="#Безымянный_градиент_6"/><linearGradient id="Безымянный_градиент_6-3" x1="750.35" y1="411.12" x2="750.35" y2="404.12" xlink:href="#Безымянный_градиент_6"/><linearGradient id="Безымянный_градиент_6-4" x1="763.08" y1="411.12" x2="763.08" y2="404.12" xlink:href="#Безымянный_градиент_6"/><linearGradient id="Безымянный_градиент_6-5" x1="775.81" y1="411.12" x2="775.81" y2="404.12" xlink:href="#Безымянный_градиент_6"/><linearGradient id="Безымянный_градиент_6-6" x1="788.54" y1="411.12" x2="788.54" y2="404.12" xlink:href="#Безымянный_градиент_6"/><linearGradient id="Безымянный_градиент_6-7" x1="801.27" y1="411.12" x2="801.27" y2="404.12" xlink:href="#Безымянный_градиент_6"/><linearGradient id="Безымянный_градиент_6-8" x1="814" y1="411.12" x2="814" y2="404.12" xlink:href="#Безымянный_градиент_6"/><linearGradient id="Безымянный_градиент_39" x1="717.32" y1="358.36" x2="717.32" y2="414.89" gradientUnits="userSpaceOnUse"><stop offset=".37" stop-color="#0c96d4"/><stop offset=".48" stop-color="#0c92cf"/><stop offset=".6" stop-color="#0b88c0"/><stop offset=".74" stop-color="#0977a8"/><stop offset=".88" stop-color="#075f86"/><stop offset="1" stop-color="#054663"/></linearGradient><linearGradient id="Безымянный_градиент_29" x1="620.29" y1="447.88" x2="620.29" y2="410.51" gradientUnits="userSpaceOnUse"><stop offset=".19" stop-color="#878787"/><stop offset=".22" stop-color="#767676"/><stop offset=".27" stop-color="#616160"/><stop offset=".32" stop-color="#50504f"/><stop offset=".39" stop-color="#454544"/><stop offset=".48" stop-color="#3e3e3d"/><stop offset=".74" stop-color="#3c3c3b"/></linearGradient><linearGradient id="Безымянный_градиент_6-9" x1="518.96" y1="410.5" x2="518.96" y2="403.5" xlink:href="#Безымянный_градиент_6"/><linearGradient id="Безымянный_градиент_6-10" x1="533.66" y1="410.5" x2="533.66" y2="403.5" xlink:href="#Безымянный_градиент_6"/><linearGradient id="Безымянный_градиент_6-11" x1="546.95" y1="410.5" x2="546.95" y2="403.5" xlink:href="#Безымянный_градиент_6"/><linearGradient id="Безымянный_градиент_6-12" x1="559.1" y1="410.5" x2="559.1" y2="403.5" xlink:href="#Безымянный_градиент_6"/><linearGradient id="Безымянный_градиент_6-13" x1="572.11" y1="410.5" x2="572.11" y2="403.5" xlink:href="#Безымянный_градиент_6"/><linearGradient id="Безымянный_градиент_6-14" x1="585.11" y1="410.5" x2="585.11" y2="403.5" xlink:href="#Безымянный_градиент_6"/><linearGradient id="Безымянный_градиент_6-15" x1="597.27" y1="410.5" x2="597.27" y2="403.5" xlink:href="#Безымянный_градиент_6"/><linearGradient id="Безымянный_градиент_6-16" x1="609.7" y1="410.5" x2="609.7" y2="403.5" xlink:href="#Безымянный_градиент_6"/><linearGradient id="Безымянный_градиент_6-17" x1="622.71" y1="410.5" x2="622.71" y2="403.5" xlink:href="#Безымянный_градиент_6"/><linearGradient id="Безымянный_градиент_6-18" x1="635.71" y1="410.5" x2="635.71" y2="403.5" xlink:href="#Безымянный_градиент_6"/><linearGradient id="Безымянный_градиент_6-19" x1="660.87" y1="410.5" x2="660.87" y2="403.5" xlink:href="#Безымянный_градиент_6"/><linearGradient id="Безымянный_градиент_6-20" x1="648.15" y1="410.5" x2="648.15" y2="403.5" xlink:href="#Безымянный_градиент_6"/><linearGradient id="Безымянный_градиент_6-21" x1="674.16" y1="410.5" x2="674.16" y2="403.5" xlink:href="#Безымянный_градиент_6"/><linearGradient id="Безымянный_градиент_6-22" x1="686.88" y1="410.5" x2="686.88" y2="403.5" xlink:href="#Безымянный_градиент_6"/><linearGradient id="Безымянный_градиент_27" x1="496.3" y1="271.33" x2="496.3" y2="252.97" gradientUnits="userSpaceOnUse"><stop offset=".19" stop-color="#878787"/><stop offset=".22" stop-color="#818181"/><stop offset=".37" stop-color="#636362"/><stop offset=".52" stop-color="#4d4d4d"/><stop offset=".66" stop-color="#40403f"/><stop offset=".79" stop-color="#3c3c3b"/></linearGradient><linearGradient id="Безымянный_градиент_30" x1="453.71" y1="432.25" x2="453.71" y2="475.78" gradientUnits="userSpaceOnUse"><stop offset="0" stop-color="#9d9d9c"/><stop offset=".08" stop-color="#adadac"/><stop offset=".38" stop-color="#e8e8e8"/><stop offset=".52" stop-color="#fff"/><stop offset=".53" stop-color="#f5f5f5"/><stop offset=".57" stop-color="#d2d1d1"/><stop offset=".62" stop-color="#b3b3b3"/><stop offset=".66" stop-color="#9b9a9a"/><stop offset=".72" stop-color="#888787"/><stop offset=".78" stop-color="#7a7979"/><stop offset=".85" stop-color="#727171"/><stop offset="1" stop-color="#706f6f"/></linearGradient><linearGradient id="Безымянный_градиент_98" x1="548.25" y1="444" x2="548.25" y2="472" gradientUnits="userSpaceOnUse"><stop offset=".01" stop-color="#ededed"/><stop offset=".42" stop-color="#fff"/><stop offset=".69" stop-color="#9a9999"/><stop offset=".81" stop-color="#706f6f"/></linearGradient><linearGradient id="Безымянный_градиент_132" x1="568.03" y1="450.01" x2="568.03" y2="465.5" gradientUnits="userSpaceOnUse"><stop offset="0" stop-color="#e4e4e4"/><stop offset=".02" stop-color="#ccc"/><stop offset=".06" stop-color="#8e8e8e"/><stop offset=".08" stop-color="#706f6f"/><stop offset=".12" stop-color="#767676"/><stop offset=".18" stop-color="#898888"/><stop offset=".25" stop-color="#a6a6a6"/><stop offset=".32" stop-color="#cfcfcf"/><stop offset=".34" stop-color="#dadada"/><stop offset=".41" stop-color="#bbb"/><stop offset=".52" stop-color="#8e8e8d"/><stop offset=".63" stop-color="#6a6a6a"/><stop offset=".73" stop-color="#515150"/><stop offset=".82" stop-color="#414140"/><stop offset=".89" stop-color="#3c3c3b"/></linearGradient><linearGradient id="Безымянный_градиент_6-23" x1="268.37" y1="410.5" x2="268.38" y2="403.5" xlink:href="#Безымянный_градиент_6"/><linearGradient id="Безымянный_градиент_6-24" x1="281.1" y1="410.5" x2="281.1" y2="403.5" xlink:href="#Безымянный_градиент_6"/><linearGradient id="Безымянный_градиент_6-25" x1="293.82" y1="410.5" x2="293.82" y2="403.5" xlink:href="#Безымянный_градиент_6"/><linearGradient id="Безымянный_градиент_6-26" x1="306.54" y1="410.5" x2="306.54" y2="403.5" xlink:href="#Безымянный_градиент_6"/><linearGradient id="Безымянный_градиент_6-27" x1="319.26" y1="410.5" x2="319.26" y2="403.5" xlink:href="#Безымянный_градиент_6"/><linearGradient id="Безымянный_градиент_6-28" x1="331.98" y1="410.5" x2="331.98" y2="403.5" xlink:href="#Безымянный_градиент_6"/><linearGradient id="Безымянный_градиент_6-29" x1="344.7" y1="410.5" x2="344.7" y2="403.5" xlink:href="#Безымянный_градиент_6"/><linearGradient id="Безымянный_градиент_6-30" x1="357.42" y1="410.5" x2="357.42" y2="403.5" xlink:href="#Безымянный_градиент_6"/><linearGradient id="Безымянный_градиент_6-31" x1="370.14" y1="410.5" x2="370.14" y2="403.5" xlink:href="#Безымянный_градиент_6"/><linearGradient id="Безымянный_градиент_6-32" x1="382.86" y1="410.5" x2="382.86" y2="403.5" xlink:href="#Безымянный_градиент_6"/><linearGradient id="Безымянный_градиент_6-33" x1="408.31" y1="410.5" x2="408.31" y2="403.5" xlink:href="#Безымянный_градиент_6"/><linearGradient id="Безымянный_градиент_6-34" x1="395.58" y1="410.5" x2="395.58" y2="403.5" xlink:href="#Безымянный_градиент_6"/><linearGradient id="Безымянный_градиент_6-35" x1="421.03" y1="410.5" x2="421.03" y2="403.5" xlink:href="#Безымянный_градиент_6"/><linearGradient id="Безымянный_градиент_6-36" x1="433.75" y1="410.5" x2="433.75" y2="403.5" xlink:href="#Безымянный_градиент_6"/><linearGradient id="Безымянный_градиент_6-37" x1="457.31" y1="410.5" x2="457.31" y2="403.5" xlink:href="#Безымянный_градиент_6"/><linearGradient id="Безымянный_градиент_6-38" x1="470.1" y1="410.5" x2="470.1" y2="403.5" xlink:href="#Безымянный_градиент_6"/><linearGradient id="Безымянный_градиент_6-39" x1="482.89" y1="410.5" x2="482.89" y2="403.5" xlink:href="#Безымянный_градиент_6"/><linearGradient id="Безымянный_градиент_6-40" x1="495.67" y1="410.5" x2="495.67" y2="403.5" xlink:href="#Безымянный_градиент_6"/><linearGradient id="Безымянный_градиент_101" x1="436.25" y1="254.34" x2="436.25" y2="265.34" gradientUnits="userSpaceOnUse"><stop offset=".1" stop-color="#ededed"/><stop offset=".16" stop-color="#d9d8d8"/><stop offset=".28" stop-color="#a4a4a4"/><stop offset=".38" stop-color="#706f6f"/><stop offset=".74" stop-color="#dadada"/></linearGradient><linearGradient id="Безымянный_градиент_33" x1="610.95" y1="448.25" x2="610.95" y2="439.54" gradientUnits="userSpaceOnUse"><stop offset=".06" stop-color="#b2b2b2"/><stop offset=".18" stop-color="#9c9c9c"/><stop offset=".39" stop-color="#7e7e7d"/><stop offset=".59" stop-color="#686868"/><stop offset=".78" stop-color="#5b5b5a"/><stop offset=".96" stop-color="#575756"/></linearGradient><linearGradient id="Безымянный_градиент_33-2" x1="632.4" y1="442.2" x2="632.4" y2="433.2" xlink:href="#Безымянный_градиент_33"/><linearGradient id="Безымянный_градиент_191" x1="650.58" y1="435.79" x2="650.58" y2="426.8" gradientUnits="userSpaceOnUse"><stop offset=".06" stop-color="#dadada"/><stop offset=".24" stop-color="#b5b5b5"/><stop offset=".43" stop-color="#979696"/><stop offset=".62" stop-color="#818181"/><stop offset=".79" stop-color="#747373"/><stop offset=".96" stop-color="#706f6f"/></linearGradient><linearGradient id="Безымянный_градиент_184" x1="677.75" y1="428.2" x2="677.75" y2="435.46" gradientUnits="userSpaceOnUse"><stop offset=".18" stop-color="#c6c6c6"/><stop offset=".32" stop-color="#e4e4e4"/><stop offset=".44" stop-color="#f8f8f8"/><stop offset=".52" stop-color="#fff"/><stop offset=".72" stop-color="#b3b3b3"/><stop offset=".89" stop-color="#706f6f"/></linearGradient><linearGradient id="Безымянный_градиент_363" x1="826.3" y1="243.77" x2="826.3" y2="227.07" gradientUnits="userSpaceOnUse"><stop offset="0" stop-color="#c6c6c6"/><stop offset=".14" stop-color="#d7d7d7"/><stop offset=".15" stop-color="#dadada"/><stop offset=".19" stop-color="#ebebeb"/><stop offset=".24" stop-color="#f6f6f6"/><stop offset=".32" stop-color="#fdfdfd"/><stop offset=".52" stop-color="#fff"/><stop offset=".57" stop-color="#fafafa"/><stop offset=".62" stop-color="#ededed"/><stop offset=".68" stop-color="#d7d7d7"/><stop offset=".73" stop-color="#b8b8b8"/><stop offset=".79" stop-color="#919090"/><stop offset=".83" stop-color="#706f6f"/></linearGradient><linearGradient id="Безымянный_градиент_57" x1="973.88" y1="379.25" x2="1032.55" y2="382.59" gradientUnits="userSpaceOnUse"><stop offset=".29" stop-color="#c6c6c6"/><stop offset=".38" stop-color="#b4b4b3"/><stop offset=".58" stop-color="#848483"/><stop offset=".74" stop-color="#575756"/></linearGradient><linearGradient id="Безымянный_градиент_55" x1="866.6" y1="209.48" x2="866.6" y2="201.83" gradientUnits="userSpaceOnUse"><stop offset=".12" stop-color="#878787"/><stop offset=".22" stop-color="#6d6d6d"/><stop offset=".33" stop-color="#575757"/><stop offset=".46" stop-color="#484847"/><stop offset=".6" stop-color="#3f3f3e"/><stop offset=".79" stop-color="#3c3c3b"/></linearGradient><linearGradient id="Безымянный_градиент_148" x1="55.92" y1="215.46" x2="55.92" y2="202.96" gradientUnits="userSpaceOnUse"><stop offset=".09" stop-color="#706f6f"/><stop offset=".14" stop-color="#767676"/><stop offset=".21" stop-color="#898888"/><stop offset=".29" stop-color="#a6a6a6"/><stop offset=".38" stop-color="#cfcfcf"/><stop offset=".42" stop-color="#e4e4e4"/><stop offset=".49" stop-color="#dadada"/><stop offset=".54" stop-color="#bbb"/><stop offset=".62" stop-color="#8e8e8d"/><stop offset=".7" stop-color="#6a6a6a"/><stop offset=".77" stop-color="#515150"/><stop offset=".84" stop-color="#414140"/><stop offset=".89" stop-color="#3c3c3b"/></linearGradient><linearGradient id="Безымянный_градиент_34" x1="496.56" y1="431.6" x2="496.56" y2="478.23" gradientUnits="userSpaceOnUse"><stop offset="0" stop-color="#7cb7e4"/><stop offset=".05" stop-color="#6cb2e2"/><stop offset=".2" stop-color="#43a6dc"/><stop offset=".33" stop-color="#259dd8"/><stop offset=".44" stop-color="#1398d5"/><stop offset=".52" stop-color="#0c96d4"/><stop offset=".64" stop-color="#097baf"/><stop offset=".8" stop-color="#055a7f"/><stop offset=".93" stop-color="#024562"/><stop offset="1" stop-color="#013d57"/></linearGradient><linearGradient id="Безымянный_градиент_12" x1="458.81" y1="431.6" x2="458.81" y2="477.39" gradientUnits="userSpaceOnUse"><stop offset="0" stop-color="#c6c6c6"/><stop offset=".04" stop-color="#d7d7d7"/><stop offset=".11" stop-color="#e9e9e9"/><stop offset=".19" stop-color="#f6f6f6"/><stop offset=".29" stop-color="#fdfdfd"/><stop offset=".52" stop-color="#fff"/><stop offset=".61" stop-color="#d5d5d5"/><stop offset=".74" stop-color="#949493"/><stop offset=".86" stop-color="#646463"/><stop offset=".95" stop-color="#474746"/><stop offset="1" stop-color="#3c3c3b"/></linearGradient><style>.cls-11,.cls-26,.cls-70{stroke:#878787}.cls-11,.cls-13,.cls-16,.cls-26,.cls-70,.cls-75,.cls-76{stroke-width:.6px}.cls-4{fill:#66ade0}.cls-7{fill:#0c96d4}.cls-76{stroke:#706f6f}.cls-10,.cls-11,.cls-13,.cls-16,.cls-75,.cls-76,.cls-81,.cls-87{fill:none}.cls-10,.cls-75,.cls-81{stroke:#b2b2b2}.cls-10,.cls-87{stroke-width:.5px}.cls-79{fill:#575756}.cls-13{stroke:#575756}.cls-16{stroke:#3c3c3b}.cls-26{fill:#f6f6f6}.cls-70{fill:#ededed}.cls-81{stroke-width:.4px}.cls-85{fill:#93c1e7}.cls-87{stroke:#e30613}</style></defs><path d="M112.28 432.95a3.63 3.63 0 01-.14-2.1c2.54-15.67 37.19-26.19 37.19-26.19 8.74-12.48 51-26.39 59.33-28.67 14.67-4 38.67-5.33 38.67-5.33l177.33-2 116 .67 178-.67 84-.67 148.67 3.33 32.67 1.34s33.84-1.22 36.67 2.67c3.82 5.26 2.82 11.86 1 16.43-.72 1.8-4.54 1.78-5.28 2.74-1.67 2.16-.76 5.63-3.08 7.43-13.43 10.39-36 15.09-47.29 18.74-22.67 7.33-75.69 22.32-118.67 30-18.67 3.33-36.67 7.33-64 9.33-20 1.46-68.67 2.67-84 2.67s-138.67 2.67-138.67 2.67-102-1.33-111.33-2-206.67 1.33-216 .67-62.07-3-94-13.33c-20.68-6.68-26.73-16.26-27.07-17.73z" transform="translate(-111.75 -194.36)" fill="url(#Безымянный_градиент_3)" stroke-width=".6" stroke="#878787"/><path d="M802.67 368s76.67-19.33 88.67-25.33 120.67-148 120.67-148l32.67.67L1004.75 373z" transform="translate(-111.75 -194.36)" fill="url(#Безымянный_градиент_56)" stroke-width=".6" stroke="#878787"/><path d="M1017.51 316.84a39 39 0 10-23.1 70.45 39.37 39.37 0 007.39-.71z" transform="translate(-111.75 -194.36)" fill="url(#Безымянный_градиент_61)"/><path class="cls-4" d="M981.88 348.29a39 39 0 11-39-39 38.94 38.94 0 0139 39z" transform="translate(-111.75 -194.36)"/><path d="M915.48 317.44c-11.69 13.92-20.58 23.74-23.55 25.22-5 2.52-21.44 7.38-38.79 12.17a39 39 0 1062.34-37.39z" transform="translate(-111.75 -194.36)" fill="url(#Безымянный_градиент_70)"/><path d="M904.15 348.29a38.88 38.88 0 0013.23 29.3 39 39 0 000-58.59 38.88 38.88 0 00-13.23 29.29z" transform="translate(-111.75 -194.36)" fill="#0074b6"/><path class="cls-7" d="M955.41 348.3a38.88 38.88 0 0013.23 29.3 39 39 0 000-58.59 38.88 38.88 0 00-13.23 29.29z" transform="translate(-111.75 -194.36)"/><path d="M131.88 447.61c2.33 1 4.91 2 7.78 2.92 31.93 10.3 84.67 12.67 94 13.33s206.67-1.33 216-.67 111.33 2 111.33 2 123.33-2.67 138.67-2.67 64-1.21 84-2.67c27.33-2 45.33-6 64-9.33 4.94-.88 10-1.86 15.16-2.92H131.88z" transform="translate(-111.75 -194.36)" fill="url(#Безымянный_градиент_15)"/><path stroke="#706f6f" fill="#3c3c3b" stroke-width=".6" d="M903.41 206.91l1.67-5.67 5.67-1.33.33-9.67-12.33 10-.34 5h1.34l-.67 3-.58 1.67 4.91-3z"/><path class="cls-10" d="M820.01 176.7v59.82"/><path class="cls-10" d="M142.53 432.07c22.75 5.5 97 9 104.5 9l535-.5" transform="translate(-111.75 -194.36)"/><path class="cls-11" d="M164.07 259.71h4.5v2.5h-4.5z"/><path class="cls-10" d="M124.73 203.21l544.55-.67M124.73 223.88h603.59"/><path class="cls-10" d="M781.6 440.59s47.28-.67 58.62-6M781.67 456.59c30.58-2.15 46-5.42 58-10.32" transform="translate(-111.75 -194.36)"/><path class="cls-10" d="M728.3 199.16h150.28M830.55 176.83v56.88M862.55 178.08v45.86M819.88 183.11h11"/><path class="cls-10" d="M840.05 423.52s67.45-1.75 102.35-7.33M932 405.57c5.67-.25 36.17-5.43 41.15-7.58" transform="translate(-111.75 -194.36)"/><path fill="#575756" stroke="#706f6f" stroke-width=".6" d="M824.35 185.96h3.4v20.87h-3.4z"/><path class="cls-10" d="M942.64 419.85c1.67 0 30.52-8.33 31.85-8.67" transform="translate(-111.75 -194.36)"/><path class="cls-10" d="M333.87 175.42v92.7"/><path class="cls-13" d="M238.67 457.4q4.06 0 8.36-.08c7.5-.14 534.72-.5 534.72-.5" transform="translate(-111.75 -194.36)"/><path d="M659.5 430.05c-7.25-1-17.5-1.75-25-2.25-8.27-.55-24-.75-26.5-1-2.19-.22-41.81-.63-51.75-.73v0H554v0c-9.94.1-49.57.51-51.75.73-2.5.25-18.23.45-26.5 1-7.5.5-17.75 1.25-25 2.25-13.24 1.83-23 8.75-22.75 15 .27 6.75 15 18.67 21.83 19.5 4.72.58 45.17 1.45 45.17 1.45l59.75-.43V467l.38-1.42h.38l59.74.42s40.45-.84 45.17-1.42c6.83-.83 21.56-12.75 21.83-19.5.25-6.28-9.51-13.2-22.75-15.03z" transform="translate(-111.75 -194.36)" fill="url(#Безымянный_градиент_13)" stroke-width=".6" stroke="#878787"/><path d="M726.76 408.29c0 1.56-.84 2.83-1.87 2.83s-1.87-1.28-1.87-2.83V407c0-1.56.84-2.83 1.88-2.83s1.88 1.28 1.88 2.83v1.33z" transform="translate(-111.75 -194.36)" fill="url(#Безымянный_градиент_6)"/><path class="cls-16" d="M726.76 408.29c0 1.56-.84 2.83-1.87 2.83s-1.87-1.28-1.87-2.83V407c0-1.56.84-2.83 1.88-2.83s1.88 1.28 1.88 2.83v1.33z" transform="translate(-111.75 -194.36)"/><path d="M739.49 408.29c0 1.56-.84 2.83-1.87 2.83s-1.87-1.28-1.87-2.83V407c0-1.56.84-2.83 1.88-2.83s1.88 1.28 1.88 2.83v1.33z" transform="translate(-111.75 -194.36)" fill="url(#Безымянный_градиент_6-2)"/><path class="cls-16" d="M739.49 408.29c0 1.56-.84 2.83-1.87 2.83s-1.87-1.28-1.87-2.83V407c0-1.56.84-2.83 1.88-2.83s1.88 1.28 1.88 2.83v1.33z" transform="translate(-111.75 -194.36)"/><path d="M752.22 408.29c0 1.56-.84 2.83-1.87 2.83s-1.87-1.28-1.87-2.83V407c0-1.56.84-2.83 1.88-2.83s1.88 1.28 1.88 2.83v1.33z" transform="translate(-111.75 -194.36)" fill="url(#Безымянный_градиент_6-3)"/><path class="cls-16" d="M752.22 408.29c0 1.56-.84 2.83-1.87 2.83s-1.87-1.28-1.87-2.83V407c0-1.56.84-2.83 1.88-2.83s1.88 1.28 1.88 2.83v1.33z" transform="translate(-111.75 -194.36)"/><path d="M765 408.29c0 1.56-.84 2.83-1.87 2.83s-1.87-1.28-1.87-2.83V407c0-1.56.84-2.83 1.88-2.83S765 405.4 765 407v1.33z" transform="translate(-111.75 -194.36)" fill="url(#Безымянный_градиент_6-4)"/><path class="cls-16" d="M765 408.29c0 1.56-.84 2.83-1.87 2.83s-1.87-1.28-1.87-2.83V407c0-1.56.84-2.83 1.88-2.83S765 405.4 765 407v1.33z" transform="translate(-111.75 -194.36)"/><path d="M777.68 408.29c0 1.56-.84 2.83-1.87 2.83s-1.87-1.28-1.87-2.83V407c0-1.56.84-2.83 1.88-2.83s1.88 1.28 1.88 2.83v1.33z" transform="translate(-111.75 -194.36)" fill="url(#Безымянный_градиент_6-5)"/><path class="cls-16" d="M777.68 408.29c0 1.56-.84 2.83-1.87 2.83s-1.87-1.28-1.87-2.83V407c0-1.56.84-2.83 1.88-2.83s1.88 1.28 1.88 2.83v1.33z" transform="translate(-111.75 -194.36)"/><path d="M790.41 408.29c0 1.56-.84 2.83-1.87 2.83s-1.87-1.28-1.87-2.83V407c0-1.56.84-2.83 1.88-2.83s1.88 1.28 1.88 2.83v1.33z" transform="translate(-111.75 -194.36)" fill="url(#Безымянный_градиент_6-6)"/><path class="cls-16" d="M790.41 408.29c0 1.56-.84 2.83-1.87 2.83s-1.87-1.28-1.87-2.83V407c0-1.56.84-2.83 1.88-2.83s1.88 1.28 1.88 2.83v1.33z" transform="translate(-111.75 -194.36)"/><path d="M803.14 408.29c0 1.56-.84 2.83-1.87 2.83s-1.87-1.28-1.87-2.83V407c0-1.56.84-2.83 1.88-2.83s1.88 1.28 1.88 2.83v1.33z" transform="translate(-111.75 -194.36)" fill="url(#Безымянный_градиент_6-7)"/><path class="cls-16" d="M803.14 408.29c0 1.56-.84 2.83-1.87 2.83s-1.87-1.28-1.87-2.83V407c0-1.56.84-2.83 1.88-2.83s1.88 1.28 1.88 2.83v1.33z" transform="translate(-111.75 -194.36)"/><path d="M815.88 408.29c0 1.56-.84 2.83-1.87 2.83s-1.87-1.28-1.87-2.83V407c0-1.56.84-2.83 1.88-2.83s1.88 1.28 1.88 2.83v1.33z" transform="translate(-111.75 -194.36)" fill="url(#Безымянный_градиент_6-8)"/><path class="cls-16" d="M815.88 408.29c0 1.56-.84 2.83-1.87 2.83s-1.87-1.28-1.87-2.83V407c0-1.56.84-2.83 1.88-2.83s1.88 1.28 1.88 2.83v1.33z" transform="translate(-111.75 -194.36)"/><path class="cls-11" d="M750 358.66s-21.53 45.66-24 47.34c-12.5 8.5-58 20.67-58 20.67l4.67 9.33-38.67 9.33-80 2-19.33-12.67 1.78-7.33 6.22-.67s67.33-9.33 79.33-10 54.67-4.66 62-6.66 9.33-3.33 13.33-6 38.14-39.32 42.92-42.5c6.75-4.5 9.75-2.84 9.75-2.84z" transform="translate(-111.75 -194.36)"/><path d="M740.08 361.5c-4.77 3.18-38.92 39.83-42.92 42.5a34.76 34.76 0 01-12.36 5.73l21.1 5.17c8.33-3 15.87-6.14 19.92-8.9 2.47-1.68 24-47.33 24-47.33s-2.99-1.67-9.74 2.83z" transform="translate(-111.75 -194.36)" fill="url(#Безымянный_градиент_39)" stroke-width=".6" stroke="#878787"/><path d="M550.5 432.5c4.5-1 135-22.48 143.5-22 1 0 11.91 4.37 11.91 4.37l-37.34 11.77L673 436l-36.68 11.88-82.32-.55-19.33-12.67z" transform="translate(-111.75 -194.36)" fill="url(#Безымянный_градиент_29)" stroke-width=".6" stroke="#878787"/><path class="cls-26" d="M414.72 223.85l-1.73 2.9h-12.28l-1.73-2.9v-19.11l1.73-2.9h12.28l1.73 2.9v19.11z"/><path d="M520.83 407.66c0 1.56-.84 2.83-1.87 2.83s-1.87-1.28-1.87-2.83v-1.33c0-1.56.84-2.83 1.88-2.83s1.88 1.28 1.88 2.83v1.33z" transform="translate(-111.75 -194.36)" fill="url(#Безымянный_градиент_6-9)"/><path class="cls-16" d="M520.83 407.66c0 1.56-.84 2.83-1.87 2.83s-1.87-1.28-1.87-2.83v-1.33c0-1.56.84-2.83 1.88-2.83s1.88 1.28 1.88 2.83v1.33z" transform="translate(-111.75 -194.36)"/><path d="M535.54 407.66c0 1.56-.84 2.83-1.87 2.83s-1.87-1.28-1.87-2.83v-1.33c0-1.56.84-2.83 1.88-2.83s1.88 1.28 1.88 2.83v1.33z" transform="translate(-111.75 -194.36)" fill="url(#Безымянный_градиент_6-10)"/><path class="cls-16" d="M535.54 407.66c0 1.56-.84 2.83-1.87 2.83s-1.87-1.28-1.87-2.83v-1.33c0-1.56.84-2.83 1.88-2.83s1.88 1.28 1.88 2.83v1.33z" transform="translate(-111.75 -194.36)"/><path d="M548.83 407.66c0 1.56-.84 2.83-1.87 2.83s-1.87-1.28-1.87-2.83v-1.33c0-1.56.84-2.83 1.88-2.83s1.88 1.28 1.88 2.83v1.33z" transform="translate(-111.75 -194.36)" fill="url(#Безымянный_градиент_6-11)"/><path class="cls-16" d="M548.83 407.66c0 1.56-.84 2.83-1.87 2.83s-1.87-1.28-1.87-2.83v-1.33c0-1.56.84-2.83 1.88-2.83s1.88 1.28 1.88 2.83v1.33z" transform="translate(-111.75 -194.36)"/><path d="M561 407.66c0 1.56-.84 2.83-1.87 2.83s-1.87-1.28-1.87-2.83v-1.33c0-1.56.84-2.83 1.88-2.83s1.88 1.28 1.88 2.83v1.33z" transform="translate(-111.75 -194.36)" fill="url(#Безымянный_градиент_6-12)"/><path class="cls-16" d="M561 407.66c0 1.56-.84 2.83-1.87 2.83s-1.87-1.28-1.87-2.83v-1.33c0-1.56.84-2.83 1.88-2.83s1.88 1.28 1.88 2.83v1.33z" transform="translate(-111.75 -194.36)"/><path d="M574 407.66c0 1.56-.84 2.83-1.87 2.83s-1.87-1.28-1.87-2.83v-1.33c0-1.56.84-2.83 1.88-2.83s1.88 1.28 1.88 2.83v1.33z" transform="translate(-111.75 -194.36)" fill="url(#Безымянный_градиент_6-13)"/><path class="cls-16" d="M574 407.66c0 1.56-.84 2.83-1.87 2.83s-1.87-1.28-1.87-2.83v-1.33c0-1.56.84-2.83 1.88-2.83s1.88 1.28 1.88 2.83v1.33z" transform="translate(-111.75 -194.36)"/><path d="M587 407.66c0 1.56-.84 2.83-1.87 2.83s-1.87-1.28-1.87-2.83v-1.33c0-1.56.84-2.83 1.88-2.83s1.88 1.28 1.88 2.83v1.33z" transform="translate(-111.75 -194.36)" fill="url(#Безымянный_градиент_6-14)"/><path class="cls-16" d="M587 407.66c0 1.56-.84 2.83-1.87 2.83s-1.87-1.28-1.87-2.83v-1.33c0-1.56.84-2.83 1.88-2.83s1.88 1.28 1.88 2.83v1.33z" transform="translate(-111.75 -194.36)"/><path d="M599.14 407.66c0 1.56-.84 2.83-1.87 2.83s-1.87-1.28-1.87-2.83v-1.33c0-1.56.84-2.83 1.88-2.83s1.88 1.28 1.88 2.83v1.33z" transform="translate(-111.75 -194.36)" fill="url(#Безымянный_градиент_6-15)"/><path class="cls-16" d="M599.14 407.66c0 1.56-.84 2.83-1.87 2.83s-1.87-1.28-1.87-2.83v-1.33c0-1.56.84-2.83 1.88-2.83s1.88 1.28 1.88 2.83v1.33z" transform="translate(-111.75 -194.36)"/><path d="M611.58 407.66c0 1.56-.84 2.83-1.87 2.83s-1.87-1.28-1.87-2.83v-1.33c0-1.56.84-2.83 1.88-2.83s1.88 1.28 1.88 2.83v1.33z" transform="translate(-111.75 -194.36)" fill="url(#Безымянный_градиент_6-16)"/><path class="cls-16" d="M611.58 407.66c0 1.56-.84 2.83-1.87 2.83s-1.87-1.28-1.87-2.83v-1.33c0-1.56.84-2.83 1.88-2.83s1.88 1.28 1.88 2.83v1.33z" transform="translate(-111.75 -194.36)"/><path d="M624.58 407.66c0 1.56-.84 2.83-1.87 2.83s-1.87-1.28-1.87-2.83v-1.33c0-1.56.84-2.83 1.88-2.83s1.88 1.28 1.88 2.83v1.33z" transform="translate(-111.75 -194.36)" fill="url(#Безымянный_градиент_6-17)"/><path class="cls-16" d="M624.58 407.66c0 1.56-.84 2.83-1.87 2.83s-1.87-1.28-1.87-2.83v-1.33c0-1.56.84-2.83 1.88-2.83s1.88 1.28 1.88 2.83v1.33z" transform="translate(-111.75 -194.36)"/><path d="M637.59 407.66c0 1.56-.84 2.83-1.87 2.83s-1.87-1.28-1.87-2.83v-1.33c0-1.56.84-2.83 1.88-2.83s1.88 1.28 1.88 2.83v1.33z" transform="translate(-111.75 -194.36)" fill="url(#Безымянный_градиент_6-18)"/><path class="cls-16" d="M637.59 407.66c0 1.56-.84 2.83-1.87 2.83s-1.87-1.28-1.87-2.83v-1.33c0-1.56.84-2.83 1.88-2.83s1.88 1.28 1.88 2.83v1.33z" transform="translate(-111.75 -194.36)"/><path d="M662.75 407.66c0 1.56-.84 2.83-1.87 2.83s-1.87-1.28-1.87-2.83v-1.33c0-1.56.84-2.83 1.88-2.83s1.88 1.28 1.88 2.83v1.33z" transform="translate(-111.75 -194.36)" fill="url(#Безымянный_градиент_6-19)"/><path class="cls-16" d="M662.75 407.66c0 1.56-.84 2.83-1.87 2.83s-1.87-1.28-1.87-2.83v-1.33c0-1.56.84-2.83 1.88-2.83s1.88 1.28 1.88 2.83v1.33z" transform="translate(-111.75 -194.36)"/><path d="M650 407.66c0 1.56-.84 2.83-1.87 2.83s-1.87-1.28-1.87-2.83v-1.33c0-1.56.84-2.83 1.88-2.83s1.88 1.28 1.88 2.83v1.33z" transform="translate(-111.75 -194.36)" fill="url(#Безымянный_градиент_6-20)"/><path class="cls-16" d="M650 407.66c0 1.56-.84 2.83-1.87 2.83s-1.87-1.28-1.87-2.83v-1.33c0-1.56.84-2.83 1.88-2.83s1.88 1.28 1.88 2.83v1.33z" transform="translate(-111.75 -194.36)"/><path d="M676 407.66c0 1.56-.84 2.83-1.87 2.83s-1.87-1.28-1.87-2.83v-1.33c0-1.56.84-2.83 1.88-2.83s1.88 1.28 1.88 2.83v1.33z" transform="translate(-111.75 -194.36)" fill="url(#Безымянный_градиент_6-21)"/><path class="cls-16" d="M676 407.66c0 1.56-.84 2.83-1.87 2.83s-1.87-1.28-1.87-2.83v-1.33c0-1.56.84-2.83 1.88-2.83s1.88 1.28 1.88 2.83v1.33z" transform="translate(-111.75 -194.36)"/><path d="M688.76 407.66c0 1.56-.84 2.83-1.87 2.83s-1.87-1.28-1.87-2.83v-1.33c0-1.56.84-2.83 1.88-2.83s1.88 1.28 1.88 2.83v1.33z" transform="translate(-111.75 -194.36)" fill="url(#Безымянный_градиент_6-22)"/><path class="cls-16" d="M688.76 407.66c0 1.56-.84 2.83-1.87 2.83s-1.87-1.28-1.87-2.83v-1.33c0-1.56.84-2.83 1.88-2.83s1.88 1.28 1.88 2.83v1.33z" transform="translate(-111.75 -194.36)"/><path d="M591.25 210.09c1.88-1.62 28.13-29.12 36.88-38.37l10.5-7.58s-3-1.67-9.75 2.83c-4.77 3.18-38.92 39.83-42.92 42.5s-6 4-13.33 6l7 .5c3.83.12 8.85-3.51 11.62-5.88z" fill="#c6c6c6" stroke-width=".6" stroke="#878787"/><path fill="url(#Безымянный_градиент_27)" d="M442.25 252.97h81.94l26.16 16.94-36.1 1.13-65.34.28-6.66-18.35z"/><path d="M451.13 441.35v25.78s2.78 8.15 4.78 8.65c.78-2.8 0-41.33.07-43.48-.56-.75-4.85 9.05-4.85 9.05z" transform="translate(-111.75 -194.36)" fill="url(#Безымянный_градиент_30)" stroke-width=".6" stroke="#878787"/><path d="M537.5 444c2 0 21 4 21 4l.06 2 .44 15.5-21 6.5z" transform="translate(-111.75 -194.36)" fill="url(#Безымянный_градиент_98)" stroke-width=".6" stroke="#878787"/><path d="M577.5 457c0 3-18.5 8.5-18.5 8.5l-.44-15.5s18.94 4 18.94 7z" transform="translate(-111.75 -194.36)" fill="url(#Безымянный_градиент_132)" stroke-width=".6" stroke="#878787"/><path class="cls-11" d="M410.75 172.7l6.5-8.5h4l-2 4-.5 6.5h-10l2-2zM119.58 231.52l-2.11 2h-14.95l-2.11-2v-36.66l2.11-2h14.95l2.11 2v36.66z"/><path class="cls-26" d="M391.76 223.85l-1.73 2.9h-12.28l-1.73-2.9v-19.11l1.73-2.9h12.28l1.73 2.9v19.11z"/><path class="cls-10" d="M94.91 181.97v85.33M124.91 177.3v92.34"/><path d="M270.25 407.66c0 1.56-.84 2.83-1.87 2.83s-1.87-1.28-1.87-2.83v-1.33c0-1.56.84-2.83 1.88-2.83s1.88 1.28 1.88 2.83v1.33z" transform="translate(-111.75 -194.36)" fill="url(#Безымянный_градиент_6-23)"/><path class="cls-16" d="M270.25 407.66c0 1.56-.84 2.83-1.87 2.83s-1.87-1.28-1.87-2.83v-1.33c0-1.56.84-2.83 1.88-2.83s1.88 1.28 1.88 2.83v1.33z" transform="translate(-111.75 -194.36)"/><path d="M283 407.66c0 1.56-.84 2.83-1.87 2.83s-1.87-1.28-1.87-2.83v-1.33c0-1.56.84-2.83 1.88-2.83s1.88 1.28 1.88 2.83v1.33z" transform="translate(-111.75 -194.36)" fill="url(#Безымянный_градиент_6-24)"/><path class="cls-16" d="M283 407.66c0 1.56-.84 2.83-1.87 2.83s-1.87-1.28-1.87-2.83v-1.33c0-1.56.84-2.83 1.88-2.83s1.88 1.28 1.88 2.83v1.33z" transform="translate(-111.75 -194.36)"/><path d="M295.69 407.66c0 1.56-.84 2.83-1.87 2.83s-1.87-1.28-1.87-2.83v-1.33c0-1.56.84-2.83 1.88-2.83s1.88 1.28 1.88 2.83v1.33z" transform="translate(-111.75 -194.36)" fill="url(#Безымянный_градиент_6-25)"/><path class="cls-16" d="M295.69 407.66c0 1.56-.84 2.83-1.87 2.83s-1.87-1.28-1.87-2.83v-1.33c0-1.56.84-2.83 1.88-2.83s1.88 1.28 1.88 2.83v1.33z" transform="translate(-111.75 -194.36)"/><path d="M308.41 407.66c0 1.56-.84 2.83-1.87 2.83s-1.87-1.28-1.87-2.83v-1.33c0-1.56.84-2.83 1.88-2.83s1.88 1.28 1.88 2.83v1.33z" transform="translate(-111.75 -194.36)" fill="url(#Безымянный_градиент_6-26)"/><path class="cls-16" d="M308.41 407.66c0 1.56-.84 2.83-1.87 2.83s-1.87-1.28-1.87-2.83v-1.33c0-1.56.84-2.83 1.88-2.83s1.88 1.28 1.88 2.83v1.33z" transform="translate(-111.75 -194.36)"/><path d="M321.13 407.66c0 1.56-.84 2.83-1.87 2.83s-1.87-1.28-1.87-2.83v-1.33c0-1.56.84-2.83 1.88-2.83s1.88 1.28 1.88 2.83v1.33z" transform="translate(-111.75 -194.36)" fill="url(#Безымянный_градиент_6-27)"/><path class="cls-16" d="M321.13 407.66c0 1.56-.84 2.83-1.87 2.83s-1.87-1.28-1.87-2.83v-1.33c0-1.56.84-2.83 1.88-2.83s1.88 1.28 1.88 2.83v1.33z" transform="translate(-111.75 -194.36)"/><path d="M333.85 407.66c0 1.56-.84 2.83-1.87 2.83s-1.87-1.28-1.87-2.83v-1.33c0-1.56.84-2.83 1.88-2.83s1.88 1.28 1.88 2.83v1.33z" transform="translate(-111.75 -194.36)" fill="url(#Безымянный_градиент_6-28)"/><path class="cls-16" d="M333.85 407.66c0 1.56-.84 2.83-1.87 2.83s-1.87-1.28-1.87-2.83v-1.33c0-1.56.84-2.83 1.88-2.83s1.88 1.28 1.88 2.83v1.33z" transform="translate(-111.75 -194.36)"/><path d="M346.58 407.66c0 1.56-.84 2.83-1.87 2.83s-1.87-1.28-1.87-2.83v-1.33c0-1.56.84-2.83 1.88-2.83s1.88 1.28 1.88 2.83v1.33z" transform="translate(-111.75 -194.36)" fill="url(#Безымянный_градиент_6-29)"/><path class="cls-16" d="M346.58 407.66c0 1.56-.84 2.83-1.87 2.83s-1.87-1.28-1.87-2.83v-1.33c0-1.56.84-2.83 1.88-2.83s1.88 1.28 1.88 2.83v1.33z" transform="translate(-111.75 -194.36)"/><path d="M359.3 407.66c0 1.56-.84 2.83-1.87 2.83s-1.87-1.28-1.87-2.83v-1.33c0-1.56.84-2.83 1.88-2.83s1.88 1.28 1.88 2.83v1.33z" transform="translate(-111.75 -194.36)" fill="url(#Безымянный_градиент_6-30)"/><path class="cls-16" d="M359.3 407.66c0 1.56-.84 2.83-1.87 2.83s-1.87-1.28-1.87-2.83v-1.33c0-1.56.84-2.83 1.88-2.83s1.88 1.28 1.88 2.83v1.33z" transform="translate(-111.75 -194.36)"/><path d="M372 407.66c0 1.56-.84 2.83-1.87 2.83s-1.87-1.28-1.87-2.83v-1.33c0-1.56.84-2.83 1.88-2.83s1.88 1.28 1.88 2.83v1.33z" transform="translate(-111.75 -194.36)" fill="url(#Безымянный_градиент_6-31)"/><path class="cls-16" d="M372 407.66c0 1.56-.84 2.83-1.87 2.83s-1.87-1.28-1.87-2.83v-1.33c0-1.56.84-2.83 1.88-2.83s1.88 1.28 1.88 2.83v1.33z" transform="translate(-111.75 -194.36)"/><path d="M384.74 407.66c0 1.56-.84 2.83-1.87 2.83s-1.87-1.28-1.87-2.83v-1.33c0-1.56.84-2.83 1.88-2.83s1.88 1.28 1.88 2.83v1.33z" transform="translate(-111.75 -194.36)" fill="url(#Безымянный_градиент_6-32)"/><path class="cls-16" d="M384.74 407.66c0 1.56-.84 2.83-1.87 2.83s-1.87-1.28-1.87-2.83v-1.33c0-1.56.84-2.83 1.88-2.83s1.88 1.28 1.88 2.83v1.33z" transform="translate(-111.75 -194.36)"/><path d="M410.18 407.66c0 1.56-.84 2.83-1.87 2.83s-1.87-1.28-1.87-2.83v-1.33c0-1.56.84-2.83 1.88-2.83s1.88 1.28 1.88 2.83v1.33z" transform="translate(-111.75 -194.36)" fill="url(#Безымянный_градиент_6-33)"/><path class="cls-16" d="M410.18 407.66c0 1.56-.84 2.83-1.87 2.83s-1.87-1.28-1.87-2.83v-1.33c0-1.56.84-2.83 1.88-2.83s1.88 1.28 1.88 2.83v1.33z" transform="translate(-111.75 -194.36)"/><path d="M397.46 407.66c0 1.56-.84 2.83-1.87 2.83s-1.87-1.28-1.87-2.83v-1.33c0-1.56.84-2.83 1.88-2.83s1.88 1.28 1.88 2.83v1.33z" transform="translate(-111.75 -194.36)" fill="url(#Безымянный_градиент_6-34)"/><path class="cls-16" d="M397.46 407.66c0 1.56-.84 2.83-1.87 2.83s-1.87-1.28-1.87-2.83v-1.33c0-1.56.84-2.83 1.88-2.83s1.88 1.28 1.88 2.83v1.33z" transform="translate(-111.75 -194.36)"/><path d="M422.9 407.66c0 1.56-.84 2.83-1.87 2.83s-1.87-1.28-1.87-2.83v-1.33c0-1.56.84-2.83 1.88-2.83s1.88 1.28 1.88 2.83v1.33z" transform="translate(-111.75 -194.36)" fill="url(#Безымянный_градиент_6-35)"/><path class="cls-16" d="M422.9 407.66c0 1.56-.84 2.83-1.87 2.83s-1.87-1.28-1.87-2.83v-1.33c0-1.56.84-2.83 1.88-2.83s1.88 1.28 1.88 2.83v1.33z" transform="translate(-111.75 -194.36)"/><path d="M435.62 407.66c0 1.56-.84 2.83-1.87 2.83s-1.87-1.28-1.87-2.83v-1.33c0-1.56.84-2.83 1.88-2.83s1.88 1.28 1.88 2.83v1.33z" transform="translate(-111.75 -194.36)" fill="url(#Безымянный_градиент_6-36)"/><path class="cls-16" d="M435.62 407.66c0 1.56-.84 2.83-1.87 2.83s-1.87-1.28-1.87-2.83v-1.33c0-1.56.84-2.83 1.88-2.83s1.88 1.28 1.88 2.83v1.33z" transform="translate(-111.75 -194.36)"/><path d="M459.18 407.66c0 1.56-.84 2.83-1.87 2.83s-1.87-1.28-1.87-2.83v-1.33c0-1.56.84-2.83 1.88-2.83s1.88 1.28 1.88 2.83v1.33z" transform="translate(-111.75 -194.36)" fill="url(#Безымянный_градиент_6-37)"/><path class="cls-16" d="M459.18 407.66c0 1.56-.84 2.83-1.87 2.83s-1.87-1.28-1.87-2.83v-1.33c0-1.56.84-2.83 1.88-2.83s1.88 1.28 1.88 2.83v1.33z" transform="translate(-111.75 -194.36)"/><path d="M472 407.66c0 1.56-.84 2.83-1.87 2.83s-1.87-1.28-1.87-2.83v-1.33c0-1.56.84-2.83 1.88-2.83s1.88 1.28 1.88 2.83v1.33z" transform="translate(-111.75 -194.36)" fill="url(#Безымянный_градиент_6-38)"/><path class="cls-16" d="M472 407.66c0 1.56-.84 2.83-1.87 2.83s-1.87-1.28-1.87-2.83v-1.33c0-1.56.84-2.83 1.88-2.83s1.88 1.28 1.88 2.83v1.33z" transform="translate(-111.75 -194.36)"/><path d="M484.76 407.66c0 1.56-.84 2.83-1.87 2.83s-1.87-1.28-1.87-2.83v-1.33c0-1.56.84-2.83 1.88-2.83s1.88 1.28 1.88 2.83v1.33z" transform="translate(-111.75 -194.36)" fill="url(#Безымянный_градиент_6-39)"/><path class="cls-16" d="M484.76 407.66c0 1.56-.84 2.83-1.87 2.83s-1.87-1.28-1.87-2.83v-1.33c0-1.56.84-2.83 1.88-2.83s1.88 1.28 1.88 2.83v1.33z" transform="translate(-111.75 -194.36)"/><path d="M497.55 407.66c0 1.56-.84 2.83-1.87 2.83s-1.87-1.28-1.87-2.83v-1.33c0-1.56.84-2.83 1.88-2.83s1.88 1.28 1.88 2.83v1.33z" transform="translate(-111.75 -194.36)" fill="url(#Безымянный_градиент_6-40)"/><path class="cls-16" d="M497.55 407.66c0 1.56-.84 2.83-1.87 2.83s-1.87-1.28-1.87-2.83v-1.33c0-1.56.84-2.83 1.88-2.83s1.88 1.28 1.88 2.83v1.33z" transform="translate(-111.75 -194.36)"/><path class="cls-11" d="M614.5 268.29l7 7.03h4.75l-1.32-2.75-2.18-4.53-8.25.25zM194.12 269.7l7 8.45h4.59l.16-2.31-2.34-.96-.31-5.14-9.1-.04z"/><path fill="url(#Безымянный_градиент_101)" d="M425.75 254.34h21v11h-21z"/><path fill="#1d1d1b" stroke-width=".6" stroke="#878787" d="M427.68 277.34h-2.43v-29h3l-.57 29z"/><path d="M641 444.5c0-1.87-3.37-3.75-5.33-3.75s-48.29-1.22-48.29-1.22-6.74.84-6.46 3.09 8.16 4.12 10.69 4.87 44.34.75 44.34.75 5.05-1.38 5.05-3.74z" transform="translate(-111.75 -194.36)" fill="url(#Безымянный_градиент_33)" stroke="#575756" stroke-width=".6"/><path d="M668.07 438.45c0-1.87-4-3.75-6.33-3.75s-57.33-1.5-57.33-1.5-8 1.12-7.67 3.37 9 4.12 12 4.87 53.35.75 53.35.75 5.98-1.38 5.98-3.74z" transform="translate(-111.75 -194.36)" fill="url(#Безымянный_градиент_33-2)" stroke="#575756" stroke-width=".6"/><path d="M686.25 432c0-1.87-4-3.75-6.33-3.75s-57.33-1.5-57.33-1.5-8 1.12-7.67 3.37 9 4.12 12 4.87 53.35.75 53.35.75 5.98-1.34 5.98-3.74z" transform="translate(-111.75 -194.36)" fill="url(#Безымянный_градиент_191)" stroke="#575756" stroke-width=".6"/><path d="M680 428.47c-.61 0-4.62-.11-10.61-.26l3.46 7.25h7.47s5.83-1.35 5.83-3.64c-.02-1.82-3.9-3.35-6.15-3.35z" transform="translate(-111.75 -194.36)" fill="url(#Безымянный_градиент_184)"/><path class="cls-10" d="M492.53 175.42l-.1 48.74"/><path class="cls-70" d="M536.45 427.33l-1.78 7.33L694 410.52l-9.67-.69S620 416.93 612 417.6s-75.55 9.73-75.55 9.73z" transform="translate(-111.75 -194.36)"/><path class="cls-11" d="M669.62 262.06v2.49"/><path class="cls-10" d="M669.62 173.73v88.33M728.31 174.58v81.77"/><path fill="url(#Безымянный_градиент_363)" stroke-width=".6" stroke="#878787" d="M800.1 241.81l22.18 1.96 30.22-16.7-52.4 14.74z"/><path d="M1010.64 393.33l52-24-49.33 1.33s-76.67 14.67-78.67 15.34-1.67 5.33 1 6 75 1.33 75 1.33z" transform="translate(-111.75 -194.36)" fill="url(#Безымянный_градиент_57)" stroke-width=".6" stroke="#878787"/><path class="cls-70" d="M1022.7 370.41l-9.4.25s-76.66 14.67-78.66 15.34-1.67 5.33 1 6c.73.18 6.66.36 14.88.53z" transform="translate(-111.75 -194.36)"/><path fill="url(#Безымянный_градиент_55)" d="M824.32 198.02l31.9 16.65 40.66-2 12-6.66-10-6.76-74.56-1.23z"/><path class="cls-10" d="M77.52 188.46v77.57M31.02 212.55v44.98M8.52 224.96v21.5"/><path fill="url(#Безымянный_градиент_148)" stroke-width=".6" stroke="#878787" d="M74.45 202.96v6.5l-13 6-12-4-12.06-.97 7.91-7.03h18.15l11-.5z"/><path class="cls-11" d="M65.52 203.46l-4.07 12M55.52 203.96l-5.5 7.5"/><path class="cls-75" d="M63.77 198.21v3.5l-6.25-.25 2.5-3.25h3.75zM57.02 198.21l-.75 3.25-6.75-.75 5-2.75 2.5.25z"/><path class="cls-10" d="M56.75 214.49l-.73 3.47-24.75.75"/><path class="cls-10" d="M142.84 423.82c-4.25 1.5-22.07-1.25-22.07-1.25M142.66 437.07c-1.5 0-18.38-.75-21.88-2" transform="translate(-111.75 -194.36)"/><path class="cls-76" d="M189.16 453.95a318.11 318.11 0 0049.51 3.45" transform="translate(-111.75 -194.36)"/><path d="M31.53 248.46c13.27 3.87 27.07 8.2 45.88 11.13" stroke="#9d9d9c" fill="none" stroke-width=".6"/><path class="cls-75" d="M37.02 233.96h3.25v3.25h-3.25zM35.77 220.96h4.75v2h-4.75z"/><path class="cls-75" d="M39.77 219.96h2v2.25h-2z"/><path class="cls-11" d="M126.32 255.21h5.25v2h-5.25zM142.57 254.71h10.5v2.5h-10.5z"/><path class="cls-26" d="M119.61 231.68l-2.11 2.01h-14.95l-2.11-2.01v-36.97l2.11-2.01h14.95l2.11 2.01v36.97z"/><path class="cls-11" d="M226 405.19c0 .64-1.28 1.17-2.83 1.17h-2.83c-1.56 0-2.83-.52-2.83-1.17s1.28-1.17 2.83-1.17h2.83c1.58-.02 2.83.53 2.83 1.17z" transform="translate(-111.75 -194.36)"/><circle class="cls-11" cx="110.02" cy="204" r="1.5"/><path class="cls-26" d="M768.61 228.68l-2.11 2.01h-14.95l-2.11-2.01v-36.97l2.11-2.01h14.95l2.11 2.01v36.97z"/><path class="cls-11" d="M875 402.19c0 .64-1.28 1.17-2.83 1.17h-2.83c-1.56 0-2.83-.52-2.83-1.17s1.28-1.17 2.83-1.17h2.83c1.58-.02 2.83.53 2.83 1.17z" transform="translate(-111.75 -194.36)"/><circle class="cls-11" cx="759.02" cy="201" r="1.5"/><path class="cls-76" d="M946.03 177.01l-39.48.48 4.53-1.5 39.77-.76-4.82 1.78z"/><path stroke="#575756" stroke-width=".5" fill="none" d="M876.25 198.39l68.19-22.73"/><path class="cls-10" d="M953.83 382.28c-2.83.62-2.17 8.77 0 9M980.83 377.05c-2.17-.58-2.83 6.5 0 6M1006.75 372c-1.41.15-1.87 3 0 3" transform="translate(-111.75 -194.36)"/><path class="cls-79" d="M785 219.21h4.67v5.33H785z"/><circle class="cls-79" cx="812.75" cy="207.17" r=".86"/><circle class="cls-79" cx="812.75" cy="195.39" r=".86"/><circle class="cls-79" cx="812.75" cy="192.07" r=".86"/><path stroke="#575756" fill="none" d="M785 222.56h-8"/><path class="cls-81" d="M901.27 4.04L784.75 151.66l-32.92 6M775.65 150.31v24.85M784.65 157.18v18.33M919.75 4.16l-57.2 173.92-77.8-20.92 120-153.09M784.75 157.16h-9.5M784.53 168.16h-8.77M911.58 4.16l-66.86 172.95"/><path stroke-width=".5" fill="none" stroke="#878787" d="M367.58 270.83h-3.33"/><path class="cls-10" d="M339.25 251.16h-23"/><path d="M536.31 438.52l1 37.37s-72.83 5.17-81 .13c.17-1.63-.5-44.05-.5-44.05 20.67-2.24 80.5 6.55 80.5 6.55z" transform="translate(-111.75 -194.36)" fill="url(#Безымянный_градиент_34)" stroke-width=".6" stroke="#878787"/><path d="M486.09 453.23a6.76 6.76 0 11-6.78-6.74 6.74 6.74 0 016.78 6.74z" transform="translate(-111.75 -194.36)" fill="#f6f6f6"/><path class="cls-85" d="M502.28 453.23a6.74 6.74 0 11-6.74-6.74 6.73 6.73 0 016.74 6.74z" transform="translate(-111.75 -194.36)"/><path class="cls-4" d="M518.51 453.23a6.74 6.74 0 11-6.74-6.74 6.73 6.73 0 016.74 6.74z" transform="translate(-111.75 -194.36)"/><path d="M461.81 477.39V431.6c-2.24 0-4.26.15-6 .34 0 0 .67 42.42.5 44.05a15.78 15.78 0 005.5 1.4z" transform="translate(-111.75 -194.36)" fill="url(#Безымянный_градиент_12)" stroke-width=".6" stroke="#878787"/><path class="cls-81" d="M364.25 237.78v45.61M392.91 240.44v43.05"/><circle class="cls-87" cx="370.26" cy="261.23" r="2.08"/><path class="cls-81" d="M367.58 268.83h4v7.33h-4z"/><path class="cls-87" d="M378.25 262.83v20.66"/><circle class="cls-81" cx="407.4" cy="261.51" r="2.93"/><circle class="cls-81" cx="407.4" cy="261.51" r="1.68"/><path class="cls-81" d="M522.06 445.54a2.91 2.91 0 00-5.83 0h5.83zM522.06 465.7a2.91 2.91 0 01-5.83 0h5.83z" transform="translate(-111.75 -194.36)"/><path class="cls-11" d="M348.93 234.79v2.37"/><path class="cls-10" d="M405.25 232.23v9.15M545.75 267.16v-20.5M536.25 260.66v-12M525.75 254.16h10.5"/><rect class="cls-13" x="473.25" y="261.09" width="31" height="8.07" rx="2.83" ry="2.83"/><path class="cls-13" d="M478.25 260.66v-7.5M495.25 260.73v-7.07M514.25 271.04v-16.75"/><path class="cls-76" d="M897.62 3.63l34.63 1.03"/><path class="cls-7" d="M293.84 388.49a4.06 4.06 0 01-4.11 4.32 4.18 4.18 0 01-4.15-4.37 4.06 4.06 0 014.11-4.32 4.18 4.18 0 014.15 4.37zm-4.15-8.27a8.29 8.29 0 00-8.6 8.22 8.59 8.59 0 0017.17 0 8.25 8.25 0 00-8.56-8.18zM352.29 380H344c-1.7 0-2.16 1.78-2.33 2.37s-3.14 10.43-3.14 10.43h-.76a2 2 0 000 3.94h14.54a2.38 2.38 0 002.37-2.33v-12a2.48 2.48 0 00-2.42-2.37zm-2 12.76h-7s2.12-7.29 2.16-7.5a1.26 1.26 0 011-1h2.92a1 1 0 011 1v7.5zM317.24 385.69a8.7 8.7 0 00-10.81-5.85 8.3 8.3 0 00-2.08.89 3 3 0 01.68-2.29 9.09 9.09 0 013.26-1.7c.72-.21 3-.85 4.7-1.31a2.09 2.09 0 001.7-2.67 2.21 2.21 0 00-2.76-1.19c-1.19.34-3.14.85-5 1.36a11.69 11.69 0 00-4.66 2.54 6.63 6.63 0 00-2.2 4.07 40.8 40.8 0 00-.13 9 9.91 9.91 0 00.3 1.91 8.85 8.85 0 0017-4.79zm-7.33 6.7a4.47 4.47 0 01-2.42-8.6 4.47 4.47 0 012.42 8.6zM277.31 380.1h-9.58a2.35 2.35 0 00-2.33 2.33v12a2.33 2.33 0 104.66 0v-9.11a1 1 0 011-1h3a1 1 0 011 1v9.11a2.33 2.33 0 004.66 0v-12a2.35 2.35 0 00-2.33-2.33zM324 386.41a3.38 3.38 0 013.56-3.09 3.25 3.25 0 013.35 3.09H324zm11.57.47a7.16 7.16 0 00-2.08-5.17 8.11 8.11 0 00-6-2.16 8 8 0 00-8.49 8.35 8.87 8.87 0 002.46 6.36 9.14 9.14 0 006.61 2.42 12 12 0 004.75-.81c1.4-.55 2.08-1.23 2.08-2.2a1.85 1.85 0 00-1.78-1.91c-1.23 0-2.16 1.1-4.7 1.1a4 4 0 01-4.32-3.35h9.16c1.48 0 2.37-.93 2.37-2.63zM363.35 393.62c-1.78 0-3.22-1.14-3.22-2.5s1.44-2.5 3.22-2.5 3.22 1.14 3.22 2.5-1.44 2.5-3.22 2.5zm7.42-6.82a7.86 7.86 0 00-2.12-4.41 7.73 7.73 0 00-5.81-2.37 7.61 7.61 0 00-3.65.59c-1.27.51-1.91 1.14-1.91 2.08a1.68 1.68 0 001.61 1.78c1.1 0 1.06-.81 3.39-.81a3.55 3.55 0 013.73 2.5 8.53 8.53 0 00-3-.72s-5.51-.51-6.74 4.37c-.59 3.31 1.31 6.23 5.34 6.74a7.81 7.81 0 005.26-1.23 2.09 2.09 0 001.82 1.06 2.13 2.13 0 002.12-2.12c.08 0 .08-5.81 0-7.46zM388.15 389.84a6.76 6.76 0 11-6.78-6.74 6.74 6.74 0 016.78 6.74z" transform="translate(-111.75 -194.36)"/><path class="cls-4" d="M404.34 389.84a6.74 6.74 0 11-6.74-6.74 6.73 6.73 0 016.74 6.74z" transform="translate(-111.75 -194.36)"/><path class="cls-85" d="M420.57 389.84a6.74 6.74 0 11-6.74-6.74 6.73 6.73 0 016.74 6.74z" transform="translate(-111.75 -194.36)"/><path fill="#0b75a4" stroke-width=".6" stroke="#878787" d="M747.25 158.97l.75 16.5-57.09-1.83 56.34-14.67z"/><path class="cls-11" d="M692.5 173.47l197.38 5.19"/></svg>