<svg xmlns="http://www.w3.org/2000/svg" xmlns:xlink="http://www.w3.org/1999/xlink" width="109" height="101"><defs><linearGradient id="a" x1="40.351%" x2="64.323%" y1="-.944%" y2="125.458%"><stop offset="0%" stop-color="#CFEFFF"/><stop offset="16.36%" stop-color="#8DD0FB"/><stop offset="31.79%" stop-color="#55B6F8"/><stop offset="43.22%" stop-color="#33A6F6"/><stop offset="49.39%" stop-color="#26A0F5"/><stop offset="54.61%" stop-color="#259FF5"/><stop offset="99.88%" stop-color="#2196F3"/></linearGradient><linearGradient id="b" x1="42.956%" x2="26.17%" y1="88.434%" y2="20.617%"><stop offset="0%" stop-color="#0052A3"/><stop offset="50.033%" stop-color="#1780DA" stop-opacity=".356"/><stop offset="100%" stop-color="#2196F3" stop-opacity="0"/></linearGradient><linearGradient id="c" x1="55.973%" x2="46.538%" y1="-10.696%" y2="79.967%"><stop offset=".185%" stop-color="#FFF"/><stop offset="100%" stop-color="#FFF" stop-opacity="0"/></linearGradient><linearGradient id="d" x1="61.561%" x2="6.591%" y1="108.511%" y2="15.02%"><stop offset="0%" stop-color="#FFF"/><stop offset="100%" stop-color="#CFEFFF"/></linearGradient><linearGradient id="e" x1="149.898%" x2="12.451%" y1="-25.775%" y2="96.568%"><stop offset="0%" stop-color="#FFF"/><stop offset="100%" stop-color="#CFEFFF"/></linearGradient><circle id="f" cx="50.166" cy="50.055" r="50"/><linearGradient id="h" x1="18.543%" x2="88.467%" y1="36.306%" y2="66.667%"><stop offset="0%" stop-color="#FFF"/><stop offset="100%" stop-color="#CFEFFF"/></linearGradient><linearGradient id="i" x1="83.846%" x2="34.035%" y1="85.764%" y2="33.068%"><stop offset=".371%" stop-color="#8199AD"/><stop offset="99.75%" stop-color="#8199AD" stop-opacity="0"/></linearGradient><linearGradient id="j" x1="28.035%" x2="78.354%" y1="1.129%" y2="133.027%"><stop offset="0%" stop-color="#FFF"/><stop offset="100%" stop-color="#CFEFFF"/></linearGradient><linearGradient id="k" x1="69.464%" x2="34.882%" y1="138.71%" y2="1.51%"><stop offset="0%" stop-color="#97130F"/><stop offset="100%" stop-color="#97130F" stop-opacity="0"/></linearGradient><linearGradient id="l" x1="41.571%" x2="24.463%" y1="24.396%" y2="-70.61%"><stop offset=".773%" stop-color="#8199AD"/><stop offset="64.27%" stop-color="#54A9E3" stop-opacity=".36"/><stop offset="100%" stop-color="#3FB0FC" stop-opacity="0"/></linearGradient><linearGradient id="m" x1="48.755%" x2="32.708%" y1="46.74%" y2="-55.242%"><stop offset=".773%" stop-color="#8199AD"/><stop offset="64.27%" stop-color="#54A9E3" stop-opacity=".36"/><stop offset="100%" stop-color="#3FB0FC" stop-opacity="0"/></linearGradient><linearGradient id="n" x1="75.806%" x2="19.225%" y1="100.462%" y2="-5.799%"><stop offset=".773%" stop-color="#8199AD"/><stop offset="64.27%" stop-color="#54A9E3" stop-opacity=".36"/><stop offset="100%" stop-color="#3FB0FC" stop-opacity="0"/></linearGradient><linearGradient id="o" x1="39.267%" x2="65.297%" y1="-2.119%" y2="125.591%"><stop offset="0%" stop-color="#CFEFFF"/><stop offset="16.36%" stop-color="#8DD0FB"/><stop offset="31.79%" stop-color="#55B6F8"/><stop offset="43.22%" stop-color="#33A6F6"/><stop offset="49.39%" stop-color="#26A0F5"/><stop offset="54.61%" stop-color="#259FF5"/><stop offset="99.88%" stop-color="#2196F3"/></linearGradient><linearGradient id="p" x1="107.035%" x2="-78.779%" y1="109.773%" y2="-79.642%"><stop offset="0%" stop-color="#0052A3"/><stop offset="64.39%" stop-color="#1780DA" stop-opacity=".356"/><stop offset="100%" stop-color="#2196F3" stop-opacity="0"/></linearGradient><linearGradient id="q" x1="33.45%" x2="83.531%" y1="30.548%" y2="146.153%"><stop offset="0%" stop-color="#FFF"/><stop offset="100%" stop-color="#D2DDEE"/></linearGradient><linearGradient id="r" x1="29.198%" x2="66.599%" y1="24.363%" y2="0%"><stop offset="0%" stop-color="#FFF"/><stop offset="100%" stop-color="#FFF" stop-opacity=".3"/></linearGradient></defs><g fill="none" fill-rule="evenodd"><g fill-rule="nonzero" transform="translate(3.315)"><circle cx="49.89" cy="49.779" r="49.724" fill="url(#a)"/><circle cx="49.89" cy="49.779" r="49.724" fill="url(#b)"/></g><path fill="url(#c)" fill-rule="nonzero" d="M0 38.674s75.36 26.354 73.204 25.801C48.287 58.177 17.956 52.32 17.845 52.32 13.702 54.033 96.74 80.94 96.74 80.94l-2.596 3.038L0 58.066V38.674z"/><path fill="#7BCAFF" fill-rule="nonzero" d="M88.674 23.057a6.48 6.48 0 0 0-4.972-6.298c-2.487-.608-4.973.331-6.52 2.21-.828-.442-1.768-.719-2.762-.719-2.155 0-4.033 1.105-5.083 2.818-.829-.221-1.713-.166-2.541.276-.774.387-1.271.995-1.603 1.713h23.481z" opacity=".8"/><path fill="url(#d)" fill-rule="nonzero" d="M49.492 20.055c-1.602-2.32-4.31-3.867-7.348-3.867a8.985 8.985 0 0 0-4.365 1.105 8.972 8.972 0 0 0-8.122-5.138c-3.204 0-5.966 1.657-7.569 4.143a5.811 5.811 0 0 0-3.37-1.05A5.822 5.822 0 0 0 12.972 20h36.52v.055z" opacity=".68"/><path fill="url(#e)" fill-rule="nonzero" d="M31.923 27.68c-1.16-2.045-3.37-3.426-5.857-3.426-.884 0-1.712.166-2.486.497-1.16-.939-2.652-1.547-4.254-1.547-2.928 0-5.414 1.879-6.354 4.476h18.95z"/><g transform="translate(3.315)"><mask id="g" fill="#fff"><use xlink:href="#f"/></mask><g mask="url(#g)"><g transform="translate(23.757 12.155)" fill-rule="nonzero"><path fill="url(#h)" d="M74.64 90.884H7.68c-3.978 0-7.238-3.26-7.238-7.238V7.735C.442 3.757 3.702.497 7.68.497h66.96c3.979 0 7.238 3.26 7.238 7.238v75.911c0 3.978-3.26 7.238-7.237 7.238z" transform="translate(9.392)"/><path fill="url(#i)" d="M74.64 90.884H7.68c-3.978 0-7.238-3.26-7.238-7.238V7.735C.442 3.757 3.702.497 7.68.497h66.96c3.979 0 7.238 3.26 7.238 7.238v75.911c0 3.978-3.26 7.238-7.237 7.238z" transform="translate(9.392)"/><path fill="url(#j)" d="M81.878 15.414v-8.01c0-3.813-3.149-6.962-6.96-6.962H7.402C3.591.442.442 3.592.442 7.403v8.011h81.436z" transform="translate(9.392)"/><path fill="#D73C4A" d="M91.27 15.414v-8.01c0-3.813-3.149-6.962-6.96-6.962H16.794c-3.812 0-6.961 3.15-6.961 6.961v8.011H91.27z"/><path fill="url(#k)" d="M81.878 15.414v-8.01c0-3.813-3.149-6.962-6.96-6.962H7.402C3.591.442.442 3.592.442 7.403v8.011h81.436z" transform="translate(9.392)"/><path fill="#CFEFFF" d="M100.11 53.039H9.834V15.414h83.37z"/><path fill="url(#l)" d="M90.718 38.122H.442V.497h83.37z" transform="translate(9.392 14.917)"/><g><path fill="#CFEFFF" d="M100.111 53.039H9.834L4.53 18.232l89.117.663z"/><path fill="url(#m)" d="M95.691 34.807H5.414L.11 0l89.117.663z" transform="translate(4.42 18.232)"/></g><g><path fill="#CFEFFF" d="M99.834 53.038h-90L.055 21.215h87.846z"/><path fill="url(#n)" d="M99.834 32.044h-90L.055 5h87.846z" transform="translate(0 20.994)"/></g><path fill="#97130F" d="M30.552 32.707c0-1.105-.165-1.27-1.325-1.27h-4.365l-8.177 8.397c-.442.387-.718.718-.718.995 0 .165.11.663.276.828l1.658 2.873c.386.663.552.83.828.83.277 0 .553-.111.94-.388l4.917-3.922 2.983 11.989h8.011l-5.028-20.332zm25.802 4.973c8.066-1.713 15.47 5.745 15.359 12.541 0 .94-.221 1.934-.387 2.818h7.182c.11-.884.221-1.824.221-2.708 0-10.828-11.712-20.939-22.652-19.613-17.68 2.044-14.64 21.492-14.53 22.376h7.127c-1.492-7.238 1.547-14.144 7.68-15.414z"/><path fill="#D73C4A" d="M21.436 63.37c-1.16 0-1.326.166-1.326 1.326v3.26c0 1.16.111 1.326 1.326 1.326h18.62c1.215 0 1.325-.11 1.325-1.326v-3.26c0-1.16-.166-1.326-1.326-1.326H35.47V53.04h-8.011V63.37h-6.023zM60 69.945c9.448 0 17.238-7.348 18.508-16.906h-7.182c-1.16 5.58-5.635 9.392-11.326 9.392-5.69 0-10.166-3.812-11.326-9.392h-7.127C42.762 62.597 50.552 69.945 60 69.945z"/><circle cx="37.845" cy="8.066" r="1.989" fill="#97130F"/><circle cx="60.773" cy="8.066" r="1.989" fill="#97130F"/><g><path fill="url(#o)" d="M12.013 25.736c-5.69 0-10.442-4.2-11.657-9.78C-1.081 8.83 1.903 1.537 8.036.267c8.563-1.823 15.911 6.077 15.911 12.983 0 .94-.11 1.824-.276 2.708-1.216 5.58-5.967 9.779-11.658 9.779z" transform="translate(48.066 37.017)"/><path fill="url(#p)" d="M12.013 25.736c-5.69 0-10.442-4.2-11.657-9.78C-1.081 8.83 1.903 1.537 8.036.267c8.563-1.823 15.911 6.077 15.911 12.983 0 .94-.11 1.824-.276 2.708-1.216 5.58-5.967 9.779-11.658 9.779z" transform="translate(48.066 37.017)"/></g></g></g></g><g fill-rule="nonzero"><path fill="#AEC4CC" d="M94.254 61.547l-6.575-5.69c-.497-.387-1.05-.553-1.657-.553h-1.657l4.143 6.243h5.746z" opacity=".8"/><path fill="#FFF" d="M103.702 60.221H78.343c-.056 0-1.824-1.547-2.708-2.32a17.28 17.28 0 0 0-.276 5.635c.663.719 1.547 1.271 2.541 1.492.221.055.498.11.719.11h25.138c1.381 0 4.475-1.104 4.475-2.486-.11-1.326-3.204-2.43-4.53-2.43z"/><path fill="url(#q)" d="M28.564 2.762H3.205c-.056 0-1.824-1.547-2.708-2.32a17.28 17.28 0 0 0-.276 5.635c.663.719 1.547 1.271 2.541 1.492.221.055.498.11.719.11h25.138c1.381 0 4.475-1.104 4.475-2.486-.11-1.326-3.204-2.43-4.53-2.43z" transform="translate(75.138 57.459)"/><path fill="#AEC4CC" d="M75.248 63.536c.663.718 1.547 1.27 2.542 1.492.22.055.497.11.718.11h25.138c1.05 0 3.15-.663 4.033-1.602H75.25z" opacity=".8"/><path fill="#FFF" d="M93.591 63.536l-9.392 7.404a3.432 3.432 0 0 1-2.155.773H79.89l7.404-8.121h6.298v-.056z"/><path fill="#AEC4CC" d="M102.652 62.045h5.304c-.221-.332-.663-.663-1.16-.94h-4.089v.94h-.055z" opacity=".8"/></g><path fill="url(#r)" fill-rule="nonzero" d="M73.204 95.394c-.386-.276-.773-.552-1.215-.718-2.21-1.105-4.64-1.27-6.85-.718-2.874-4.586-7.901-7.624-13.703-7.624-2.707 0-5.303.663-7.569 1.878-4.143-5.027-10.884-7.569-17.624-5.967-2.873.663-5.359 2.045-7.458 3.868a49.477 49.477 0 0 0 27.79 13.204l3.149.387 15.635.055h11.05c-.663-1.547-1.768-3.37-3.205-4.365z" opacity=".8"/></g></svg>