<svg width="28" height="36" xmlns="http://www.w3.org/2000/svg"><g fill="none" fill-rule="evenodd"><path d="M16.552.375s1.26 4.426 1.26 8.017c0 3.44-2.298 6.23-5.803 6.23-3.521 0-6.176-2.79-6.176-6.23l.051-.601A22.744 22.744 0 0 0 .39 22.639C.389 30.02 6.479 36 14 36c7.52 0 13.611-5.98 13.611-13.361 0-9.003-4.406-17.036-11.059-22.264z" fill="#2196F3" fill-rule="nonzero"/><path d="M13.631 30.375c-3.02 0-5.464-2.376-5.464-5.328 0-2.749 1.782-4.683 4.769-5.294 3.004-.611 6.11-2.053 7.84-4.378a23.672 23.672 0 0 1 1.002 6.855 8.148 8.148 0 0 1-8.147 8.145z" fill="#D1EAFE"/></g></svg>